<svg xmlns="http://www.w3.org/2000/svg" width="53" height="53" viewBox="0 0 269.21 269.21"><path d="M172.391 76.173c.301-1.839.439-3.587.355-5.203l11.604-7.898c4.509-2.228 9.085-1.926 11.502-1.514.189.035 6.978 1.445 10.729-1.109 4.619-3.141 5.832-9.455 2.675-14.066-1.798-2.648-4.61-4.129-7.561-4.369.86-2.822.517-5.996-1.273-8.621-3.14-4.637-9.454-5.832-14.074-2.684-2.581 1.755-4.12 6.366-4.603 10.702-.215 1.651-1.308 7.311-5.858 11.415l-11.132 7.588c-7.327-1.995-19.262-.528-31.226 2.924 12.248 2.291 24.461 6.212 36.436 11.719l2.426 1.116zM22.618 182.759h92.292a44.689 44.689 0 01-6.854-7.871c-8.687-12.77-10.186-28.202-4.221-43.457 5.143-13.15 15.36-25.202 29.543-34.848 6.249-4.253 13.823-8.15 21.938-11.452-10.735-4.175-22.168-7.179-34.153-8.478-8.422-.916-16.686-1.396-24.678-1.396C45.179 75.257 5 95.318 5 147.006c0 17.619 8.81 35.753 17.618 35.753z"/><path d="M141.819 108.983c-23.288 15.838-33.628 39.435-21.36 57.467 6.353 9.337 16.843 13.869 28.714 13.869 11.054 0 23.306-3.928 34.534-11.564 19.958-13.592 40.192-46.498 39.254-65.416l14.023-9.531c4.316-2.137 9.359-2.645 13.894-1.842 4.059.718 9.577.977 12.981-1.342 5.574-3.803 7.028-11.416 3.243-17.016-2.186-3.184-5.592-4.973-9.153-5.257 1.032-3.415.637-7.243-1.54-10.435-3.812-5.604-11.437-7.036-17.017-3.235-3.114 2.116-4.973 7.708-5.565 12.938-.25 1.979-1.575 8.826-7.072 13.808l-13.463 9.162c-2.773-.762-6.099-1.116-9.802-1.116-18.223.001-45.619 8.585-61.671 19.51zm116.399 55.31l-21.889-4.378-.025-.229c-.561-4.951-3.334-12.179-8.653-20.319a128.585 128.585 0 01-3.647 6.442c-8.927 14.755-20.537 27.637-31.861 35.349-.303.206-.611.398-.916.601h65.262a8.818 8.818 0 001.729-17.466zm1.522 34.466H8.818a8.821 8.821 0 00-7.945 12.647l7.882 16.356a22.088 22.088 0 0019.896 12.497h211.254a22.09 22.09 0 0019.897-12.497l7.882-16.356a8.82 8.82 0 00-7.944-12.647z"/></svg>